<svg width="70" height="60" viewBox="0 0 70 60" fill="none" xmlns="http://www.w3.org/2000/svg">
  <rect width="70" height="60"/>
  <path d="M40.9216 24.0472C39.2745 22.3969 37.3007 21.5717 35 21.5717C32.6993 21.5717 30.7255 22.3969 29.0784 24.0472C27.4314 25.6713 26.6078 27.649 26.6078 29.9804C26.6078 32.3117 27.4314 34.3026 29.0784 35.9528C30.7255 37.5769 32.6993 38.389 35 38.389C37.3007 38.389 39.2745 37.5769 40.9216 35.9528C42.5686 34.3026 43.3922 32.3117 43.3922 29.9804C43.3922 27.649 42.5686 25.6713 40.9216 24.0472ZM42.0588 37.053C40.098 39.0177 37.7451 40 35 40C32.2549 40 29.902 39.0177 27.9412 37.053C25.9804 35.0884 25 32.7308 25 29.9804C25 27.2299 25.9804 24.8854 27.9412 22.947C29.902 20.9823 32.2549 20 35 20C37.7451 20 40.098 20.9823 42.0588 22.947C44.0196 24.8854 45 27.2299 45 29.9804C45 32.7308 44.0196 35.0884 42.0588 37.053ZM31.6275 32.9273L34.5686 29.9804L31.7059 27.0727L32.1373 26.6405L35 29.5481L37.9412 26.6012L38.3726 27.0334L35.4706 29.9804L38.3333 32.8487L37.902 33.2809L35 30.4126L32.0588 33.3595L31.6275 32.9273Z" fill="#EB5940"/>
</svg>
