<svg width="70" height="60" viewBox="0 0 70 60" fill="none" xmlns="http://www.w3.org/2000/svg">
<rect width="70" height="60" fill="white"/>
<path d="M36.8182 38.1818H29.5455C29.1818 38.1818 28.8182 38.0909 28.4545 38C27.6364 37.6364 27.0909 36.9091 26.9091 36.0909C26.9091 36 26.9091 36 26.9091 35.9091C26.9091 35.8182 26.9091 35.6364 26.9091 35.5455V28.1818V24.5455C25.7273 25.4546 25 26.7273 25 28.1818V35.4546C25 38 27 40 29.5455 40H36.8182C38.2727 40 39.6364 39.2727 40.4545 38.1818H36.8182Z" fill="#00B863"/>
<path d="M42.2727 21.8182C42.7273 21.8182 43.1818 22.2727 43.1818 22.7273V33.6364C43.1818 34.0909 42.7273 34.5455 42.2727 34.5455H31.3636C30.9091 34.5455 30.4545 34.0909 30.4545 33.6364V22.7273C30.4545 22.2727 30.9091 21.8182 31.3636 21.8182H42.2727ZM42.2727 20H31.3636C29.9091 20 28.6364 21.2727 28.6364 22.7273V33.6364C28.6364 35.0909 29.8182 36.3636 31.3636 36.3636H42.2727C43.7273 36.3636 45 35.0909 45 33.6364V22.7273C45 21.2727 43.8182 20 42.2727 20Z" fill="#00B863"/>
</svg>
