<svg width="26" height="19" viewBox="0 0 26 19" fill="none" xmlns="http://www.w3.org/2000/svg">
  <path d="M2.05833 11.0238L0.270833 13.5154L2.05833 14.8696L3.84582 12.3779C4.76665 12.9196 5.74165 13.4071 6.71665 13.7863L5.79581 16.7113L7.85417 17.4154L8.77497 14.4904C9.85831 14.7613 10.9416 14.9238 12.025 15.0321V18.1196H14.1916V15.0321C15.275 14.9779 16.3583 14.8154 17.4416 14.4904L18.3625 17.4154L20.4208 16.7113L19.3917 13.7321C20.4208 13.3529 21.3958 12.8113 22.2625 12.2154L24.05 14.8154L25.8375 13.5154L24.05 11.0238C24.7541 10.4279 25.4042 9.77793 26 9.07376L24.375 7.61126C19.0125 13.8946 9.58749 14.6529 3.30415 9.29043C2.70832 8.80293 2.16667 8.2071 1.625 7.61126L0 9.07376C0.704167 9.77793 1.35416 10.4279 2.05833 11.0238ZM20.6916 5.01126L21.775 3.11543C16.4125 0.0279295 9.80414 0.0279295 4.44164 3.11543L5.52497 5.01126C10.2375 2.30293 15.9791 2.30293 20.6916 5.01126Z" fill="#676868"/>
</svg>
