<svg width="70" height="60" viewBox="0 0 70 60" fill="none" xmlns="http://www.w3.org/2000/svg">
  <rect width="70" height="60" fill="#107FC9"/>
  <path d="M35 20C29.5 20 25 24.5 25 30C25 35.5 29.5 40 35 40C40.5 40 45 35.5 45 30C45 24.5 40.5 20 35 20ZM35 38.75C30.1875 38.75 26.25 34.8125 26.25 30C26.25 25.1875 30.1875 21.25 35 21.25C39.8125 21.25 43.75 25.1875 43.75 30C43.75 34.8125 39.8125 38.75 35 38.75Z" fill="white"/>
  <path d="M31.5972 26.1771C31.3786 26.341 31.25 26.5983 31.25 26.8715V33.193C31.25 33.4649 31.3781 33.721 31.5956 33.8842C31.8454 34.0716 32.1768 34.1096 32.4625 33.9837L38.5204 31.3141C39.0398 31.0852 39.375 30.5712 39.375 30.0036C39.375 29.4324 39.0355 28.9158 38.5111 28.6891L32.4622 26.0748C32.1764 25.9512 31.8463 25.9903 31.5972 26.1771ZM32.5 27.4375L38.125 29.875V30.125L32.5 32.5625V27.4375Z" fill="white"/>
</svg>
