<svg width="26" height="17" viewBox="0 0 26 17" fill="none" xmlns="http://www.w3.org/2000/svg">
<path d="M23.7792 7.25833L25.675 5.09167L24.05 3.62917L22.1 5.95833C21.2333 5.3625 20.2583 4.92917 19.2833 4.49583L20.475 1.4625L18.4708 0.65L17.225 3.79167C16.1958 3.52083 15.1125 3.35833 14.0292 3.30417V0H11.8625V3.30417C10.7792 3.35833 9.75 3.52083 8.66667 3.79167L7.42082 0.65L5.41667 1.4625L6.60832 4.49583C5.63332 4.875 4.7125 5.3625 3.79167 5.95833L1.84166 3.62917L0.216663 5.0375L2.1125 7.20417C1.35416 7.8 0.65 8.50417 0 9.20833L1.57083 10.8333C4.3875 7.42083 8.55833 5.41667 13 5.41667C17.4417 5.41667 21.6125 7.42083 24.375 10.8333L26 9.20833C25.2958 8.50417 24.5375 7.85417 23.7792 7.25833Z" fill="#00B956"/>
<path d="M12.9457 7.58334C10.5624 7.58334 8.61237 9.53334 8.61237 11.9167C8.61237 14.3 10.5624 16.25 12.9457 16.25C15.329 16.25 17.279 14.3 17.279 11.9167C17.279 9.53334 15.329 7.58334 12.9457 7.58334ZM12.9457 14.0833C11.754 14.0833 10.779 13.1083 10.779 11.9167C10.779 10.725 11.754 9.75001 12.9457 9.75001C14.1374 9.75001 15.1124 10.725 15.1124 11.9167C15.1124 13.1083 14.1374 14.0833 12.9457 14.0833Z" fill="#00B956"/>
</svg>
